<?xml version="1.0" encoding="utf-8"?>
<!-- Generator: Adobe Illustrator 25.3.0, SVG Export Plug-In . SVG Version: 6.00 Build 0)  -->
<svg version="1.1" id="Icon__x28_Outline_x29_" xmlns="http://www.w3.org/2000/svg" xmlns:xlink="http://www.w3.org/1999/xlink"
	 x="0px" y="0px" viewBox="0 0 96 96" style="enable-background:new 0 0 96 96;" xml:space="preserve">
<style type="text/css">
	.st0{fill:#0045E6;}
</style>
<g>
	<path d="M80,14H16c-3.3,0-6,2.7-6,6v56c0,3.3,2.7,6,6,6h31v-2H16c-2.2,0-4-1.8-4-4V60h43v-2H12V38h72v18h2V20
		C86,16.7,83.3,14,80,14z M12,36V20c0-2.2,1.8-4,4-4h64c2.2,0,4,1.8,4,4v16H12z"/>
	<rect x="18" y="21" width="2" height="10"/>
	<rect x="25" y="21" width="2" height="10"/>
	<rect x="32" y="21" width="2" height="10"/>
	<path d="M74,22c-2.2,0-4,1.8-4,4s1.8,4,4,4s4-1.8,4-4S76.2,22,74,22z M74,28c-1.1,0-2-0.9-2-2s0.9-2,2-2s2,0.9,2,2S75.1,28,74,28z"
		/>
	<path d="M63,22c-2.2,0-4,1.8-4,4s1.8,4,4,4c2.2,0,4-1.8,4-4S65.2,22,63,22z M63,28c-1.1,0-2-0.9-2-2s0.9-2,2-2s2,0.9,2,2
		S64.1,28,63,28z"/>
	<rect x="18" y="43" width="2" height="10"/>
	<rect x="25" y="43" width="2" height="10"/>
	<rect x="32" y="43" width="2" height="10"/>
	<path d="M74,44c-2.2,0-4,1.8-4,4s1.8,4,4,4s4-1.8,4-4S76.2,44,74,44z M74,50c-1.1,0-2-0.9-2-2s0.9-2,2-2s2,0.9,2,2S75.1,50,74,50z"
		/>
	<path d="M63,44c-2.2,0-4,1.8-4,4s1.8,4,4,4c2.2,0,4-1.8,4-4S65.2,44,63,44z M63,50c-1.1,0-2-0.9-2-2s0.9-2,2-2s2,0.9,2,2
		S64.1,50,63,50z"/>
	<rect x="18" y="65" width="2" height="10"/>
	<rect x="25" y="65" width="2" height="10"/>
	<rect x="32" y="65" width="2" height="10"/>
	<path class="st0" d="M83,72c1.7,0,3-1.3,3-3v-4h-2v4c0,0.6-0.4,1-1,1h-3.1c-0.2-2.1-1.2-3.9-2.5-5.3c0.4-0.5,0.6-1.2,0.6-1.8V58h-2
		v4.8c0,0.2-0.1,0.4-0.2,0.6c-1.4-0.9-3-1.4-4.8-1.4s-3.4,0.5-4.8,1.4C66.1,63.2,66,63,66,62.8V58h-2v4.8c0,0.7,0.2,1.3,0.6,1.8
		c-1.4,1.4-2.3,3.3-2.5,5.3H59c-0.6,0-1-0.4-1-1v-4h-2v4c0,1.7,1.3,3,3,3h3v7h-3c-1.7,0-3,1.3-3,3v4h2v-4c0-0.6,0.4-1,1-1h3
		c0,5,4,9,9,9s9-4,9-9h3c0.6,0,1,0.4,1,1v4h2v-4c0-1.7-1.3-3-3-3h-3v-7L83,72L83,72z M71,64c3.5,0,6.4,2.6,6.9,6H64.1
		C64.6,66.6,67.5,64,71,64z M78,81c0,3.9-3.1,7-7,7s-7-3.1-7-7v-9h14V81z"/>
</g>
</svg>
