<?xml version="1.0" encoding="utf-8"?>
<!-- Generator: Adobe Illustrator 25.3.0, SVG Export Plug-In . SVG Version: 6.00 Build 0)  -->
<svg version="1.1" id="Icon__x28_Outlined_x29_" xmlns="http://www.w3.org/2000/svg" xmlns:xlink="http://www.w3.org/1999/xlink"
	 x="0px" y="0px" viewBox="0 0 96 96" style="enable-background:new 0 0 96 96;" xml:space="preserve">
<style type="text/css">
	.st0{fill:#0045E6;}
</style>
<path class="st0" d="M47.7,77.3c-1.2-0.3-7.6-2.3-13.8-7.9C22.5,59.3,20.1,45.2,20,35.1h2c0.1,9.7,2.4,23.2,13.2,32.8
	c5.9,5.3,11.9,7.1,13,7.4L47.7,77.3z"/>
<path d="M48,86l-0.2-0.1c-0.4-0.1-36.1-9.3-36.1-55v-0.6L48,10.1l36.3,20.3V31c0,23.8-9.8,37.5-18,44.8C57.4,83.7,48.6,85.9,48.2,86
	H48z M13.7,31.5c0.1,12.7,3.2,30.2,17.3,42.6c7.8,6.9,15.6,9.3,17.1,9.7c3-0.9,34-10.7,34.3-52.4L48,12.4L13.7,31.5z"/>
</svg>
