<?xml version="1.0" encoding="utf-8"?>
<!-- Generator: Adobe Illustrator 25.3.0, SVG Export Plug-In . SVG Version: 6.00 Build 0)  -->
<svg version="1.1" id="Icon__x28_Outline_x29_" xmlns="http://www.w3.org/2000/svg" xmlns:xlink="http://www.w3.org/1999/xlink"
	 x="0px" y="0px" viewBox="0 0 96 96" style="enable-background:new 0 0 96 96;" xml:space="preserve">
<style type="text/css">
	.st0{fill:#0045E6;}
</style>
<g>
	<path class="st0" d="M86,69h-2v-3.7c0-4-3.3-7.3-7.3-7.3h-0.3c-4,0-7.3,3.3-7.3,7.3V69h-2c-2.2,0-4,1.8-4,4v13c0,2.2,1.8,4,4,4h19
		c2.2,0,4-1.8,4-4V73C90,70.8,88.2,69,86,69z M71,65.3c0-2.9,2.4-5.3,5.3-5.3h0.3c2.9,0,5.3,2.4,5.3,5.3V69H71V65.3z M88,86
		c0,1.1-0.9,2-2,2H67c-1.1,0-2-0.9-2-2V73c0-1.1,0.9-2,2-2h19c1.1,0,2,0.9,2,2V86z"/>
	<path d="M44,6C23,6,6,23,6,44s17,38,38,38c5.6,0,11-1.2,16-3.5l-0.8-1.8c-3.1,1.4-6.3,2.4-9.6,2.9c3.1-2.9,5.8-8.2,7.5-15
		c1.9,0.9,3.7,2.1,5.4,3.4l1.3-1.6c-1.9-1.5-4-2.8-6.1-3.9c1.2-5.2,1.8-11.1,1.9-17.5H80c-0.1,3.3-0.6,6.6-1.6,9.7l1.9,0.6
		C81.4,51.7,82,47.9,82,44C82,23,65,6,44,6z M80,43H59.4c-0.1-6.4-0.7-12.3-1.9-17.5c4-1.9,7.6-4.7,10.5-8.3
		C75.1,23.6,79.7,32.8,80,43z M57.4,43H30.6c0.1-6,0.7-11.7,1.8-16.7c3.6,1.4,7.5,2.2,11.6,2.2s8-0.8,11.6-2.2
		C56.7,31.3,57.3,37,57.4,43z M66.5,15.9c-2.6,3.2-5.9,5.8-9.5,7.6c-1.8-6.9-4.4-12.2-7.5-15.1C55.9,9.4,61.7,12.1,66.5,15.9z
		 M55.1,24.3c-3.5,1.4-7.3,2.2-11.2,2.2s-7.6-0.8-11.1-2.2C35.3,14.6,39.4,8,44,8S52.7,14.6,55.1,24.3z M31,23.5
		c-3.6-1.8-6.9-4.4-9.5-7.6c4.8-3.9,10.7-6.6,17-7.5C35.4,11.3,32.7,16.6,31,23.5z M19.9,17.3c2.9,3.5,6.5,6.3,10.6,8.3
		c-1.1,5.2-1.8,11.1-1.9,17.5H8C8.3,32.8,12.8,23.6,19.9,17.3z M8,45h20.6c0.1,6.4,0.7,12.3,1.9,17.5c-4,1.9-7.6,4.7-10.6,8.3
		C12.8,64.4,8.3,55.2,8,45z M21.5,72c2.7-3.2,5.9-5.8,9.5-7.6c1.8,6.9,4.4,12.2,7.5,15.1C32.1,78.6,26.3,75.9,21.5,72z M44,80
		c-4.6,0-8.7-6.6-11.1-16.4c3.5-1.4,7.2-2.2,11.1-2.2s7.7,0.8,11.2,2.3C52.7,73.4,48.6,80,44,80z M55.6,61.7
		c-3.7-1.5-7.6-2.3-11.6-2.3s-7.9,0.8-11.6,2.2c-1.1-5-1.7-10.7-1.8-16.7h26.8C57.3,51,56.7,56.7,55.6,61.7z"/>
</g>
</svg>
