<?xml version="1.0" encoding="utf-8"?>
<!-- Generator: Adobe Illustrator 25.3.0, SVG Export Plug-In . SVG Version: 6.00 Build 0)  -->
<svg version="1.1" id="Icon__x28_Outline_x29_" xmlns="http://www.w3.org/2000/svg" xmlns:xlink="http://www.w3.org/1999/xlink"
	 x="0px" y="0px" viewBox="0 0 96 96" style="enable-background:new 0 0 96 96;" xml:space="preserve">
<style type="text/css">
	.st0{fill:#0045E6;}
</style>
<g>
	<g>
		<path class="st0" d="M49,78.1V62h-2v16.1c-2.8,0.5-5,2.9-5,5.9c0,3.3,2.7,6,6,6s6-2.7,6-6C54,81,51.8,78.6,49,78.1z M48,88
			c-2.2,0-4-1.8-4-4s1.8-4,4-4s4,1.8,4,4S50.2,88,48,88z"/>
		<path class="st0" d="M33,73H21.9c-0.5-2.8-2.9-5-5.9-5c-3.3,0-6,2.7-6,6s2.7,6,6,6c3,0,5.4-2.2,5.9-5H35V62h-2V73z M16,78
			c-2.2,0-4-1.8-4-4s1.8-4,4-4s4,1.8,4,4S18.2,78,16,78z"/>
		<path class="st0" d="M80,68c-3,0-5.4,2.2-5.9,5H63V62h-2v13h13.1c0.5,2.8,2.9,5,5.9,5c3.3,0,6-2.7,6-6S83.3,68,80,68z M80,78
			c-2.2,0-4-1.8-4-4s1.8-4,4-4s4,1.8,4,4S82.2,78,80,78z"/>
	</g>
	<path d="M70.1,59H25.9C17,59,9.7,51.7,9.7,42.8c0-6.4,3.7-12.1,9.5-14.7c-0.1-0.7-0.1-1.3-0.1-1.9C19.1,15,28.1,6,39.2,6
		c7.7,0,14.7,4.4,18.1,11.3c1.7-0.6,3.4-1,5.2-1c7,0,12.8,4.9,14.2,11.7c5.9,2.6,9.6,8.4,9.6,14.8C86.3,51.7,79,59,70.1,59z M39.2,8
		c-10,0-18.1,8.1-18.1,18.1c0,0.7,0.1,1.5,0.2,2.4l0.1,0.8l-0.7,0.3c-5.4,2.2-8.9,7.3-8.9,13.2C11.8,50.6,18.2,57,26,57h44.1
		c7.8,0,14.2-6.4,14.2-14.2c0-5.8-3.5-11-8.9-13.2l-0.5-0.2l-0.1-0.6c-0.9-6.1-6.1-10.5-12.3-10.5c-1.8,0-3.6,0.4-5.3,1.2L56.3,20
		l-0.4-1C53,12.3,46.5,8,39.2,8z"/>
</g>
</svg>
