<?xml version="1.0" encoding="utf-8"?>
<!-- Generator: Adobe Illustrator 25.3.0, SVG Export Plug-In . SVG Version: 6.00 Build 0)  -->
<svg version="1.1" id="Icon__x28_Outline_x29_" xmlns="http://www.w3.org/2000/svg" xmlns:xlink="http://www.w3.org/1999/xlink"
	 x="0px" y="0px" viewBox="0 0 96 96" style="enable-background:new 0 0 96 96;" xml:space="preserve">
<style type="text/css">
	.st0{fill:#0045E6;}
</style>
<g>
	<path class="st0" d="M76.2,62.7c-0.1-0.3-0.2-0.5-0.4-0.6c-0.8-1.2-0.4-2.8,0-4.2c0.2-0.7,0.5-1.9,0.3-2.2s-0.4-0.6-0.7-1
		c-1.1-1.3-2.5-3.2-2.1-5.8c0.3-1.8,0-2.2,0-2.3c0,0-0.2-0.1-0.5-0.1s-0.9,0.1-1.5,0.3c-1.8,0.4-4.2,1-5.9,0
		c-1.5-0.9-4.6-2.8-4.6-7.1c0-3.2,0-6.2,2.7-8.7c1.1-1,1.3-1.7,1.4-2.2c0.2-0.6,0.4-1.3,1.2-1.8c0.1-0.1,0.3-0.2,0.4-0.3
		c1-0.6,2.5-1.6,5-1.7l0.1,2c-2,0.1-3.1,0.8-4,1.4c-0.2,0.1-0.3,0.2-0.5,0.3c-0.2,0.1-0.2,0.2-0.4,0.6c-0.2,0.7-0.5,1.8-2,3.1
		c-1.9,1.8-2,3.8-2,7.2c0,2.9,1.8,4.3,3.6,5.4c1,0.6,3,0.2,4.4-0.2c0.8-0.2,1.4-0.4,1.9-0.4c0.3,0,1.3,0,2,0.8
		c0.6,0.8,0.8,1.9,0.4,3.9c-0.3,1.7,0.8,3,1.7,4.2c0.3,0.4,0.7,0.8,0.9,1.2c0.6,1,0.2,2.3-0.1,3.7c-0.2,0.9-0.6,2.2-0.3,2.5
		c0.2,0.3,0.4,0.6,0.6,1L76.2,62.7z"/>
	<path class="st0" d="M37.3,79c-0.6,0-1.1-0.1-1.6-0.5c-0.9-0.6-1.4-1.7-1.6-3.3c-0.2-1.5-0.2-2.2-0.2-2.6c0-0.5,0-0.7-0.6-2.4
		c-0.5-1.5-0.5-3-0.5-4.5c0-1.9,0-3.7-1-5.1c-0.6-0.9-2-1.3-3.4-1.7c-2.3-0.7-5.2-1.6-5.5-5.3c-0.2-2.5,0-3.3,0.5-5.1
		c0.1-0.5,0.3-1,0.5-1.7c0.6-2.3-4.4-4.9-6.9-5.9c-0.3-0.1-0.7-0.3-1-0.5l1-1.8c0.2,0.1,0.5,0.2,0.8,0.3c1,0.4,9.4,3.7,8.2,8.3
		c-0.2,0.7-0.3,1.3-0.5,1.7c-0.5,1.8-0.6,2.3-0.5,4.4c0.2,2.2,1.7,2.8,4.1,3.6c1.7,0.5,3.4,1,4.4,2.5c1.4,2,1.4,4.1,1.4,6.2
		c0,1.4,0,2.7,0.4,3.9c0.7,2,0.7,2.3,0.7,3.1c0,0.4,0,1,0.2,2.3c0.1,1,0.4,1.6,0.7,1.9c0.4,0.3,1.3,0,2.1-0.2c1-0.3,1.1-1,1.1-4.2
		v-0.9c0-2.4,0.9-3.4,1.7-4.3c0.6-0.7,1.1-1.2,1.4-2.5c0.4-1.9,1.7-3.2,2.8-4.3s1.7-1.8,1.6-2.6c-0.3-1.6,0.1-2.6,0.5-3.4
		c0.4-0.8,0.7-1.6,0.6-3.1c-0.1-0.8-0.2-0.9-1.7-1c-1.4-0.1-3.4-0.2-4.4-2.7c-0.7-1.7-0.9-1.7-1.5-1.9s-1.6-0.6-3.2-2.1
		c-2.8-2.7-4.6-2.6-6.5-1.5c-1.3,0.7-2.7,0.8-3.8,0.1c-1-0.6-1.7-1.7-1.7-2.7c0-0.7-0.5-2.2-1.1-2.5c-0.1,0-0.2-0.1-0.5,0.1
		c-1.2,0.8-2.7,0.7-3.7-0.2c-1.3-1.1-1.4-3.1-0.5-5.3c1.6-3.6,5.7-3.1,7.6-2.4l0.7,0.3l-0.1,0.8c-0.1,0.7,0,1.8,0.3,2.2
		c0,0,0.1,0.1,0.4,0.1c0.4-0.1,0.5-0.1,0.6-1.6c0.1-1.2,0.2-2.7,1.4-3.9c0.5-0.5,1-1.1,1.5-1.8c1.3-1.8,2.9-3.8,5.9-5.1
		c1-0.4,1.9-0.7,2.8-1c1.2-0.4,2.7-0.9,2.9-1.3c0-0.1,0-0.4-0.3-0.8s-0.5-0.9-0.6-1.5l1.9-0.5c0.1,0.4,0.2,0.7,0.4,1
		c0.5,1,0.7,1.8,0.4,2.5c-0.5,1.3-2.1,1.9-4.1,2.5c-0.8,0.3-1.7,0.6-2.6,0.9c-2.6,1.1-3.9,2.8-5.1,4.4c-0.5,0.7-1,1.3-1.6,2
		c-0.7,0.7-0.8,1.7-0.8,2.7c-0.1,1.3-0.3,3.2-2.3,3.4c-1.1,0.1-1.7-0.3-2.1-0.7c-0.8-0.8-0.9-2.1-0.9-3c-1.1-0.3-3.4-0.5-4.3,1.5
		c-0.7,1.6-0.5,2.6,0,3c0.3,0.3,0.8,0.3,1.3,0c0.8-0.5,1.7-0.5,2.5-0.1c1.6,0.9,2.1,3.3,2.1,4.2c0,0.3,0.2,0.7,0.7,1
		s1.1,0.3,1.8-0.1c3.1-1.8,5.8-1.2,8.9,1.8c1.2,1.2,1.9,1.4,2.4,1.6c1.1,0.4,1.7,0.8,2.7,3.1c0.5,1.2,1.3,1.3,2.7,1.4
		c1.3,0.1,3.4,0.2,3.5,2.9c0.1,2.1-0.4,3.2-0.8,4.1c-0.4,0.8-0.6,1.2-0.4,2.2c0.4,1.9-0.9,3.2-2.1,4.4c-1,1-1.9,2-2.2,3.3
		c-0.4,1.8-1.2,2.7-1.9,3.4c-0.7,0.8-1.2,1.3-1.2,3v0.9c0,3.1,0,5.4-2.5,6.1C38.8,78.8,38.1,79,37.3,79z"/>
	<path class="st0" d="M64.9,24.9c-0.4,0-1-0.1-1.6-0.1c-0.7-0.1-1.6-0.3-2-0.9c-0.5-0.7-0.4-1.4-0.2-2.3c0.1-0.3,0.1-0.6,0.2-1
		c0.1-1.1,0.3-1.8,0.7-2.4l1.7,1.1c-0.2,0.3-0.3,0.8-0.4,1.5c0,0.4-0.1,0.8-0.2,1.1c0,0.3-0.1,0.5-0.1,0.7c0.1,0,0.3,0.1,0.6,0.1
		c1.9,0.2,1.9,0.2,2.5-0.8c0.2-0.3,0.6-0.7,1.1-1l1.1,1.7c-0.4,0.2-0.5,0.4-0.5,0.4C66.9,24.5,66.1,24.9,64.9,24.9z"/>
	<path d="M48,86c-21,0-38-17-38-38s17-38,38-38s38,17,38,38S69,86,48,86z M48,12c-19.9,0-36,16.1-36,36s16.1,36,36,36s36-16.1,36-36
		S67.9,12,48,12z"/>
</g>
</svg>
