<svg xmlns="http://www.w3.org/2000/svg" viewBox="0 0 62.22 304.89"><defs><style>.cls-1{fill:#fff;}</style></defs><g id="Layer_2" data-name="Layer 2"><g id="Layer_1-2" data-name="Layer 1"><path class="cls-1" d="M12.45,229.36v15.85c0,8.43,3.44,11.87,11.87,11.87H39c8.42,0,11.86-3.44,11.86-11.87V227.66c0-6.93-3.23-10.16-10.17-10.16H36.87v6.95h3c3.81,0,5,1.17,5,5v14.15c0,5.08-1.31,6.4-6.39,6.4H32.64V217.5H24.32C15.89,217.5,12.45,220.93,12.45,229.36ZM27.32,250H24.67c-5.08,0-6.39-1.32-6.39-6.4V230.85c0-5.08,1.31-6.4,6.39-6.4h2.65Z"/><path class="cls-1" d="M13.25,195.9a19.16,19.16,0,0,0,3.51,6.68l.83,1.14-4.93.74-.21,0v5.37H50.9v-7H24.1l-2.26-3.18C20,197,19.06,193.41,19.06,189v-5.14H12.45v3.59A36.16,36.16,0,0,0,13.25,195.9Z"/><polygon class="cls-1" points="0 168.93 0 176.24 50.9 176.24 50.9 142.72 44.23 142.72 44.23 168.93 0 168.93"/><path class="cls-1" d="M12.45,107.68v16.56c0,8.43,3.44,11.86,11.87,11.86H39c8.42,0,11.86-3.43,11.86-11.86V107.68c0-8.42-3.44-11.86-11.86-11.86H24.32C15.89,95.82,12.45,99.26,12.45,107.68ZM25,102.92h13.3c5.07,0,6.46,1.37,6.46,6.39v13.3c0,5-1.39,6.4-6.46,6.4H25c-5.08,0-6.47-1.38-6.47-6.4v-13.3C18.56,104.29,20,102.92,25,102.92Z"/><path class="cls-1" d="M12.45,59.78V76.34c0,8.43,3.44,11.87,11.87,11.87H39c8.42,0,11.86-3.44,11.86-11.87V59.78c0-8.42-3.44-11.86-11.86-11.86H24.32C15.89,47.92,12.45,51.36,12.45,59.78ZM25,55h13.3c5.07,0,6.46,1.37,6.46,6.39v13.3c0,5-1.39,6.4-6.46,6.4H25c-5.08,0-6.47-1.38-6.47-6.4V61.41C18.56,56.39,20,55,25,55Z"/><path class="cls-1" d="M12.45,11.86v5.88a36.16,36.16,0,0,0,.8,8.44,19.16,19.16,0,0,0,3.51,6.68l.67.92-5,.7v5.81H62.22v-7H46.31l.28-.39a18.86,18.86,0,0,0,3.51-6.69,36.16,36.16,0,0,0,.8-8.44V11.86C50.9,3.44,47.46,0,39,0H24.32C15.89,0,12.45,3.44,12.45,11.86ZM25,7.1h13.3c5.07,0,6.46,1.39,6.46,6.46v5.88c0,4.4-.93,8-2.77,10.64l-2.27,3.18H23.61l-2.27-3.17c-1.84-2.67-2.78-6.25-2.78-10.65V13.56C18.56,8.49,20,7.1,25,7.1Z"/><path class="cls-1" d="M17.59,271.27l-.63.84a18.84,18.84,0,0,0-3.51,6.66,36.07,36.07,0,0,0-.8,8.43v5.85c0,8.41,3.43,11.84,11.84,11.84H39.17c8.4,0,11.83-3.43,11.83-11.84V287.2a36.07,36.07,0,0,0-.8-8.43,18.92,18.92,0,0,0-3.51-6.66l-.63-.84,4.94-.7v-5.86H12.65v5.86Zm6.19.52h16.1l2.25,3.09c1.84,2.66,2.77,6.26,2.77,10.69v5.86c0,5-1.38,6.37-6.44,6.37H25.19c-5.06,0-6.44-1.37-6.44-6.37v-5.86c0-4.43.93-8,2.76-10.67Z"/></g></g></svg>