<?xml version="1.0" encoding="utf-8"?>
<!-- Generator: Adobe Illustrator 25.3.0, SVG Export Plug-In . SVG Version: 6.00 Build 0)  -->
<svg version="1.1" id="Icon__x28_Outline_x29_" xmlns="http://www.w3.org/2000/svg" xmlns:xlink="http://www.w3.org/1999/xlink"
	 x="0px" y="0px" viewBox="0 0 96 96" style="enable-background:new 0 0 96 96;" xml:space="preserve">
<style type="text/css">
	.st0{fill:#0045E6;}
</style>
<g>
	<g>
		<path d="M80,14H16c-3.3,0-6,2.7-6,6v56c0,3.3,2.7,6,6,6h32v-2H16c-2.2,0-4-1.8-4-4V60h72v10h2V20C86,16.7,83.3,14,80,14z M84,58
			H12V38h72V58z M84,36H12V20c0-2.2,1.8-4,4-4h64c2.2,0,4,1.8,4,4V36z"/>
		<path d="M23,22c-2.2,0-4,1.8-4,4s1.8,4,4,4s4-1.8,4-4S25.2,22,23,22z M23,28c-1.1,0-2-0.9-2-2s0.9-2,2-2s2,0.9,2,2S24.1,28,23,28z
			"/>
		<path d="M23,52c2.2,0,4-1.8,4-4s-1.8-4-4-4s-4,1.8-4,4S20.8,52,23,52z M23,46c1.1,0,2,0.9,2,2s-0.9,2-2,2s-2-0.9-2-2
			S21.9,46,23,46z"/>
		<path d="M19,70c0,2.2,1.8,4,4,4s4-1.8,4-4s-1.8-4-4-4S19,67.8,19,70z M25,70c0,1.1-0.9,2-2,2s-2-0.9-2-2s0.9-2,2-2S25,68.9,25,70z
			"/>
	</g>
	<path class="st0" d="M79.8,90H59.1c-4.5,0-8.2-3.7-8.2-8.2c0-3.1,1.7-5.9,4.4-7.2c0-0.2,0-0.4,0-0.6c0-5.5,4.5-10,10-10
		c3.7,0,7,2,8.8,5.2c0.7-0.2,1.4-0.3,2.2-0.3c3.4,0,6.4,2.3,7.1,5.6c2.8,1.4,4.6,4.2,4.6,7.3C88,86.3,84.3,90,79.8,90z M65.3,66
		c-4.4,0-8,3.6-8,8c0,0.3,0,0.7,0.1,1.1l0.1,0.8l-0.7,0.3c-2.3,0.9-3.9,3.2-3.9,5.7c0,3.4,2.8,6.2,6.2,6.2h20.8
		c3.4,0,6.2-2.8,6.2-6.2c0-2.5-1.5-4.8-3.9-5.7L81.7,76l-0.1-0.6c-0.4-2.6-2.6-4.5-5.3-4.5c-0.8,0-1.5,0.2-2.2,0.5l-0.9,0.4l-0.4-1
		C71.4,67.9,68.5,66,65.3,66z"/>
</g>
</svg>
