<?xml version="1.0" encoding="utf-8"?>
<!-- Generator: Adobe Illustrator 25.3.0, SVG Export Plug-In . SVG Version: 6.00 Build 0)  -->
<svg version="1.1" id="Icon__x28_Outline_x29_" xmlns="http://www.w3.org/2000/svg" xmlns:xlink="http://www.w3.org/1999/xlink"
	 x="0px" y="0px" viewBox="0 0 96 96" style="enable-background:new 0 0 96 96;" xml:space="preserve">
<style type="text/css">
	.st0{fill:#0045E6;}
</style>
<g>
	<g>
		<g>
			<path d="M70.2,37.1c-5.9-5.9-13.8-9.2-22.3-9.2s-16.4,3.3-22.3,9.2L9.4,53.4l16.1,16.3l0,0c5.9,6,13.9,9.3,22.4,9.3
				s16.5-3.3,22.4-9.3l16.1-16.3L70.2,37.1z M68.9,68.4c-5.5,5.6-13,8.7-21,8.7s-15.4-3.1-21-8.7l-14.7-15L27,38.6
				C32.5,33,39.9,30,47.9,30c7.9,0,15.3,3.1,20.9,8.6l14.8,14.9L68.9,68.4z"/>
			<path d="M47.9,38.8c-8.1,0-14.6,6.6-14.6,14.6S39.9,68,47.9,68s14.6-6.6,14.6-14.6S56,38.8,47.9,38.8z M47.9,66.1
				c-7,0-12.6-5.7-12.6-12.6S41,40.9,47.9,40.9s12.6,5.7,12.6,12.6S54.9,66.1,47.9,66.1z"/>
		</g>
		<g>
			<rect x="47" y="13" class="st0" width="2" height="11"/>
			<rect x="34.3" y="15.6" transform="matrix(0.9157 -0.4019 0.4019 0.9157 -5.3374 15.934)" class="st0" width="2" height="10.2"/>
			<rect x="55.6" y="19.7" transform="matrix(0.4019 -0.9157 0.9157 0.4019 17.363 68.0024)" class="st0" width="10.2" height="2"/>
		</g>
	</g>
</g>
</svg>
