<?xml version="1.0" encoding="utf-8"?>
<!-- Generator: Adobe Illustrator 25.3.0, SVG Export Plug-In . SVG Version: 6.00 Build 0)  -->
<svg version="1.1" id="Layer_1" xmlns="http://www.w3.org/2000/svg" xmlns:xlink="http://www.w3.org/1999/xlink" x="0px" y="0px"
	 viewBox="0 0 288 288" style="enable-background:new 0 0 288 288;" xml:space="preserve">
<style type="text/css">
	.st0{fill:#0045E6;}
</style>
<g>
	<path class="st0" d="M149.4,166.3v-32.8H259c1.2,6.6,1.8,13.3,1.8,20.1c0,24.6-6.7,55-28.4,76.6c-21.1,21.9-47.9,33.6-83.6,33.6
		c-66,0-121.5-53.8-121.5-119.9S82.8,24.1,148.8,24.1c36.6,0,62.5,14.3,82.1,33l-23.1,23.1c-14.1-13.2-33-23.4-59-23.4
		c-48.2,0-85.9,38.9-85.9,87.1s37.7,87.1,85.9,87.1c31.3,0,49.1-12.6,60.5-24c9.3-9.3,15.4-22.6,17.8-40.8L149.4,166.3z"/>
</g>
</svg>
